<svg xmlns="http://www.w3.org/2000/svg" width="357.2" height="378.9"><path fill="#30456B" d="M47.2 307.2c0-1-.5-1.5-1.5-1.5H43v-7.2h7.5c3.1 0 4.2 1.4 4.2 3.3v1.3h.3s2.9-5.4 10.8-5.4c9.2 0 15.1 7.2 15.1 17.7 0 10.8-6.6 17.7-15.5 17.7-6.7 0-9.7-4.4-9.7-4.4h-.1s.1 1.2.1 2.9v14h-8.4v-38.4zm16.5 18.9c4.6 0 8.6-3.8 8.6-10.5 0-6.4-3.5-10.6-8.4-10.6-4.4 0-8.5 3.2-8.5 10.7-.1 5.3 2.7 10.4 8.3 10.4zM104.9 311.2h1.1v-.3c0-4.8-1.9-6.6-6.2-6.6-1.5 0-4.5.4-4.5 2.3v1.8h-7.8v-3.6c0-6.3 8.9-7 12.4-7 11.3 0 14.6 5.9 14.6 13.5v12.6c0 .9.5 1.5 1.5 1.5h2.7v7.1h-7.6c-3.1 0-4.3-1.7-4.3-3.7 0-.9.1-1.5.1-1.5h-.1s-2.6 6-10.2 6c-6 0-11.5-3.8-11.5-10.6-.3-10.6 14.3-11.5 19.8-11.5zm-6.5 15.5c4.5 0 7.7-4.8 7.7-8.9v-.8h-1.5c-4.4 0-11.4.6-11.4 5.3.1 2.2 1.7 4.4 5.2 4.4zM125.4 305.3H121v-6.7h4.6v-9.2h8.2v9.2h7.7v6.7h-7.7V319c0 5.6 4.4 6.4 6.7 6.4.9 0 1.5-.1 1.5-.1v7.4s-1.1.2-2.6.2c-4.7 0-14.1-1.4-14.1-12.7v-14.9zM149.1 293.9c0-1-.5-1.5-1.5-1.5H145v-7.2h8c3.1 0 4.5 1.4 4.5 4.4v11.9c0 1.7-.1 2.9-.1 2.9h.1c1.6-3.3 5.8-6.7 11.6-6.7 7.6 0 11.8 3.9 11.8 12.9v13.2c0 .9.5 1.5 1.5 1.5h2.7v7.1h-8c-3.1 0-4.4-1.3-4.4-4.5v-15.5c0-4.1-1.1-6.9-5.4-6.9-4.4 0-7.9 2.9-9.2 7-.4 1.3-.5 2.8-.5 4.4v15.5h-8.4v-38.5z"/><path fill="#F16362" d="M191.8 307.2c0-1-.5-1.5-1.5-1.5h-2.7v-7.2h8c3.1 0 4.4 1.4 4.4 4.4v15.6c0 4.1 1.1 6.9 5.2 6.9 6.1 0 9.5-5.4 9.5-11.4v-15.5h8.4v25.3c0 .9.5 1.5 1.5 1.5h2.7v7.1h-7.8c-2.9 0-4.4-1.4-4.4-3.8v-.9c0-.8.1-1.5.1-1.5h-.1c-1.6 3.5-5.8 7-11.7 7-7.2 0-11.7-3.7-11.7-12.9v-13.1zM234.4 305.3H230v-6.7h4.6v-9.2h8.2v9.2h7.7v6.7h-7.7V319c0 5.6 4.4 6.4 6.7 6.4.9 0 1.5-.1 1.5-.1v7.4s-1.1.2-2.6.2c-4.7 0-14.1-1.4-14.1-12.7v-14.9zM259.1 307.2c0-1-.5-1.5-1.5-1.5H255v-7.2h8c3.1 0 4.4 1.4 4.4 4.5v20.8c0 .9.5 1.5 1.5 1.5h2.7v7.1h-8c-3.1 0-4.4-1.3-4.4-4.5v-20.7zm.4-21.9h7.3v7.8h-7.3v-7.8zM278.5 293.9c0-1-.5-1.5-1.5-1.5h-2.7v-7.2h8c3.1 0 4.5 1.4 4.5 4.5v34.1c0 .9.5 1.5 1.5 1.5h2.6v7.1h-8c-3.2 0-4.5-1.3-4.5-4.5v-34zM298.1 321.7s4.3 5 10.1 5c2.6 0 4.6-1.1 4.6-3.3 0-4.8-17.9-4.7-17.9-15.7 0-6.8 6.1-9.9 13.1-9.9 4.6 0 11.9 1.5 11.9 7v3.5h-7.4v-1.7c0-1.6-2.4-2.4-4.2-2.4-3 0-5 1.1-5 3.1 0 5.3 18 4.2 18 15.5 0 6.4-5.6 10.4-13 10.4-9.3 0-14.1-6-14.1-6l3.9-5.5z"/><g stroke="#30456B" stroke-linecap="round" stroke-linejoin="round"><g stroke-width="8.122"><path fill="none" d="M241.2 91.1L116 216.4"/><path fill="#F16362" d="M115.9 194.7l21.9 21.9-21.9 21.9L94 216.6l21.9-21.9zM241.3 69.2l21.9 21.9-21.9 21.9-21.9-21.9 21.9-21.9z"/><g><path fill="none" d="M115.9 91.2l125.2 125.2"/><path fill="#F16362" d="M219.4 216.6l21.9-21.9 21.9 21.9-21.9 21.9-21.9-21.9zM93.9 91.1l21.9-21.9 21.9 21.9-21.9 21.9-21.9-21.9z"/></g></g><path fill="#F16362" stroke-width="6.292" d="M163.1 138.4h31v31h-31v-31z"/></g></svg>